<svg data-v-423bf9ae="" xmlns="http://www.w3.org/2000/svg" viewBox="0 0 562 90" class="iconLeft"><!----><!----><!----><g data-v-423bf9ae="" id="327d2d76-120b-4916-8c82-630ddfac4012" fill="black" transform="matrix(5.286344051361084,0,0,5.286344051361084,166.5363311767578,0.19823719561100006)"><path d="M6.01 2.80L6.47 2.80L6.47 14L6.01 14L6.01 12.66L6.01 12.66Q5.70 13.34 5.12 13.75L5.12 13.75L5.12 13.75Q4.54 14.15 3.71 14.15L3.71 14.15L3.71 14.15Q3.01 14.15 2.44 13.76L2.44 13.76L2.44 13.76Q1.88 13.37 1.53 12.54L1.53 12.54L1.53 12.54Q1.19 11.72 1.19 10.49L1.19 10.49L1.19 10.49Q1.19 8.65 1.84 7.75L1.84 7.75L1.84 7.75Q2.49 6.85 3.57 6.85L3.57 6.85L3.57 6.85Q4.40 6.85 5.03 7.27L5.03 7.27L5.03 7.27Q5.66 7.69 6.01 8.39L6.01 8.39L6.01 2.80ZM3.79 13.69L3.79 13.69Q4.65 13.69 5.24 13.00L5.24 13.00L5.24 13.00Q5.84 12.31 6.01 11.38L6.01 11.38L6.01 9.49L6.01 9.49Q5.88 8.96 5.55 8.46L5.55 8.46L5.55 8.46Q5.22 7.97 4.74 7.64L4.74 7.64L4.74 7.64Q4.26 7.31 3.67 7.31L3.67 7.31L3.67 7.31Q2.69 7.31 2.17 8.06L2.17 8.06L2.17 8.06Q1.65 8.82 1.65 10.49L1.65 10.49L1.65 10.49Q1.65 12.11 2.23 12.90L2.23 12.90L2.23 12.90Q2.81 13.69 3.79 13.69L3.79 13.69ZM13.02 6.83L13.02 6.83Q13.90 6.83 14.52 7.27L14.52 7.27L14.52 7.27Q15.13 7.71 15.44 8.46L15.44 8.46L15.44 8.46Q15.75 9.20 15.75 10.12L15.75 10.12L15.75 10.12Q15.75 10.39 15.74 10.51L15.74 10.51L10.53 10.51L10.53 10.51Q10.54 12.03 11.17 12.86L11.17 12.86L11.17 12.86Q11.80 13.69 12.98 13.69L12.98 13.69L12.98 13.69Q13.85 13.69 14.39 13.31L14.39 13.31L14.39 13.31Q14.92 12.94 15.19 12.45L15.19 12.45L15.68 12.71L15.68 12.71Q15.33 13.24 14.66 13.70L14.66 13.70L14.66 13.70Q13.99 14.15 12.98 14.15L12.98 14.15L12.98 14.15Q11.66 14.15 10.84 13.23L10.84 13.23L10.84 13.23Q10.01 12.31 10.01 10.49L10.01 10.49L10.01 10.49Q10.01 9.27 10.43 8.44L10.43 8.44L10.43 8.44Q10.85 7.62 11.54 7.22L11.54 7.22L11.54 7.22Q12.22 6.83 13.02 6.83L13.02 6.83ZM10.54 10.07L15.19 10.07L15.19 10.07Q15.22 9.38 14.99 8.74L14.99 8.74L14.99 8.74Q14.76 8.11 14.25 7.70L14.25 7.70L14.25 7.70Q13.75 7.29 12.99 7.29L12.99 7.29L12.99 7.29Q12.01 7.29 11.33 8.00L11.33 8.00L11.33 8.00Q10.64 8.71 10.54 10.07L10.54 10.07ZM22.95 7L23.46 7L21.76 14L20.30 14L18.59 7L19.11 7L20.66 13.55L21.39 13.55L22.95 7ZM30.59 13.72L30.59 13.72Q31.15 13.72 31.99 13.55L31.99 13.55L31.99 14L31.99 14Q31.82 14.03 31.38 14.09L31.38 14.09L31.38 14.09Q30.94 14.15 30.46 14.15L30.46 14.15L30.46 14.15Q29.72 14.15 29.28 13.76L29.28 13.76L29.28 13.76Q28.84 13.36 28.84 12.36L28.84 12.36L28.84 3.25L26.57 3.25L26.57 2.80L29.30 2.80L29.30 12.28L29.30 12.28Q29.30 13.16 29.65 13.44L29.65 13.44L29.65 13.44Q30.00 13.72 30.59 13.72L30.59 13.72ZM38.22 6.83L38.22 6.83Q39.10 6.83 39.72 7.27L39.72 7.27L39.72 7.27Q40.33 7.71 40.64 8.46L40.64 8.46L40.64 8.46Q40.95 9.20 40.95 10.12L40.95 10.12L40.95 10.12Q40.95 10.39 40.94 10.51L40.94 10.51L35.73 10.51L35.73 10.51Q35.74 12.03 36.37 12.86L36.37 12.86L36.37 12.86Q37.00 13.69 38.18 13.69L38.18 13.69L38.18 13.69Q39.05 13.69 39.59 13.31L39.59 13.31L39.59 13.31Q40.12 12.94 40.39 12.45L40.39 12.45L40.88 12.71L40.88 12.71Q40.53 13.24 39.86 13.70L39.86 13.70L39.86 13.70Q39.19 14.15 38.18 14.15L38.18 14.15L38.18 14.15Q36.86 14.15 36.04 13.23L36.04 13.23L36.04 13.23Q35.21 12.31 35.21 10.49L35.21 10.49L35.21 10.49Q35.21 9.27 35.63 8.44L35.63 8.44L35.63 8.44Q36.05 7.62 36.74 7.22L36.74 7.22L36.74 7.22Q37.42 6.83 38.22 6.83L38.22 6.83ZM35.74 10.07L40.39 10.07L40.39 10.07Q40.42 9.38 40.19 8.74L40.19 8.74L40.19 8.74Q39.96 8.11 39.45 7.70L39.45 7.70L39.45 7.70Q38.95 7.29 38.19 7.29L38.19 7.29L38.19 7.29Q37.21 7.29 36.53 8.00L36.53 8.00L36.53 8.00Q35.84 8.71 35.74 10.07L35.74 10.07ZM46.12 4.86L46.12 4.86Q45.85 4.86 45.67 4.68L45.67 4.68L45.67 4.68Q45.49 4.49 45.49 4.23L45.49 4.23L45.49 4.23Q45.49 3.96 45.67 3.78L45.67 3.78L45.67 3.78Q45.85 3.60 46.12 3.60L46.12 3.60L46.12 3.60Q46.38 3.60 46.56 3.78L46.56 3.78L46.56 3.78Q46.75 3.96 46.75 4.23L46.75 4.23L46.75 4.23Q46.75 4.49 46.56 4.68L46.56 4.68L46.56 4.68Q46.38 4.86 46.12 4.86L46.12 4.86ZM46.37 13.55L48.73 13.55L48.73 14L45.91 14L45.91 7.45L43.19 7.45L43.19 7L46.37 7L46.37 13.55ZM55.34 6.85L55.34 6.85Q56.42 6.85 56.84 7.43L56.84 7.43L56.84 7.43Q57.26 8.02 57.26 9.35L57.26 9.35L57.26 14L56.80 14L56.80 9.52L56.80 9.52Q56.80 8.58 56.62 8.11L56.62 8.11L56.62 8.11Q56.45 7.63 56.12 7.47L56.12 7.47L56.12 7.47Q55.79 7.31 55.23 7.31L55.23 7.31L55.23 7.31Q54.68 7.31 54.10 7.64L54.10 7.64L54.10 7.64Q53.51 7.97 53.11 8.45L53.11 8.45L53.11 8.45Q52.71 8.93 52.70 9.37L52.70 9.37L52.70 14L52.23 14L52.23 9.17L52.23 7L52.70 7L52.70 8.29L52.70 8.29Q53.12 7.64 53.82 7.25L53.82 7.25L53.82 7.25Q54.53 6.85 55.34 6.85L55.34 6.85ZM65.45 14L62.40 10.60L61.39 10.60L61.39 14L60.93 14L60.93 2.80L61.39 2.80L61.39 10.15L62.33 10.15L65.25 7L65.86 7L62.78 10.35L66.07 14L65.45 14ZM74.80 13.71L74.48 14.03L73.60 13.15L73.60 13.15Q73.22 13.54 72.60 13.85L72.60 13.85L72.60 13.85Q71.99 14.15 71.06 14.15L71.06 14.15L71.06 14.15Q69.89 14.15 69.23 13.58L69.23 13.58L69.23 13.58Q68.57 13.01 68.57 11.86L68.57 11.86L68.57 11.86Q68.57 10.67 69.22 10.12L69.22 10.12L69.22 10.12Q69.86 9.58 71.43 9.58L71.43 9.58L73.42 9.58L73.42 8.78L73.42 8.78Q73.42 8.01 72.85 7.65L72.85 7.65L72.85 7.65Q72.28 7.29 71.39 7.29L71.39 7.29L71.39 7.29Q70.71 7.29 70.19 7.48L70.19 7.48L70.19 7.48Q69.66 7.66 69.40 7.95L69.40 7.95L69.06 7.60L69.06 7.60Q69.44 7.22 70.01 7.03L70.01 7.03L70.01 7.03Q70.59 6.83 71.48 6.83L71.48 6.83L71.48 6.83Q72.49 6.83 73.19 7.30L73.19 7.30L73.19 7.30Q73.88 7.77 73.88 8.67L73.88 8.67L73.88 12.80L74.80 13.71ZM71.26 13.71L71.26 13.71Q71.95 13.71 72.51 13.39L72.51 13.39L72.51 13.39Q73.08 13.08 73.42 12.64L73.42 12.64L73.42 10.02L71.82 10.02L71.82 10.02Q70.78 10.02 70.20 10.16L70.20 10.16L70.20 10.16Q69.62 10.30 69.33 10.70L69.33 10.70L69.33 10.70Q69.03 11.09 69.03 11.86L69.03 11.86L69.03 11.86Q69.03 12.87 69.62 13.29L69.62 13.29L69.62 13.29Q70.21 13.71 71.26 13.71L71.26 13.71Z"></path></g><!----><g data-v-423bf9ae="" id="2fbdac5a-85e6-4566-a8d2-b8cd95a2db4e" transform="matrix(2.6211657524108887,0,0,2.6211657524108887,-54.20996856689453,-85.22569274902344)" stroke="none" fill="black"><path d="M54.957 32.837a19.86 19.86 0 0 0-10.771 3.432c-9.485 6.463-11.618 19.535-5.782 29.066a18.812 18.812 0 0 1-2.904-.475c-2.534-.644-4.779-1.88-6.44-4.462v-.026c.136-.244.237-.518.237-.818a1.69 1.69 0 1 0-1.716 1.69h.026a11.861 11.861 0 0 0 4.065 3.88 16.39 16.39 0 0 1-1.24-.264c-2.535-.643-4.78-1.88-6.442-4.461v-.028a1.67 1.67 0 0 0 .237-.818 1.69 1.69 0 1 0-1.716 1.689h.028c1.928 2.973 4.666 4.534 7.498 5.253 3.23.82 6.608.66 9.398.66h38.86c.446.01.857-.398.857-.844 0-.447-.41-.851-.857-.845h-12.83c.4-.207.805-.441 1.188-.687 7.958-5.092 9.604-16.04 4.514-23.706-3.696-5.568-9.942-8.366-16.21-8.237zm.028 1.69c5.721-.12 11.428 2.417 14.783 7.47 4.587 6.91 3.106 16.803-4.012 21.358-2.208 1.413-4.78 2.115-7.313 2.112-4.22-.01-8.351-1.957-10.665-5.782-2.915-4.816-1.78-11.622 3.3-14.414 3.67-2.017 8.878-1.055 10.665 2.93.531 1.185.61 2.737.185 4.013-.425 1.277-1.245 2.253-2.64 2.535-.471.095-1.51-.224-1.98-.66-.235-.219-.315-.42-.317-.528 0-.109.03-.27.422-.581a.878.878 0 0 0 .101-1.163.878.878 0 0 0-1.156-.157c-.666.528-1.07 1.243-1.057 1.954.014.71.387 1.29.845 1.716.916.85 2.212 1.308 3.459 1.056 2.022-.41 3.364-1.908 3.933-3.617.57-1.71.46-3.667-.264-5.28-2.237-4.992-8.554-6.148-13.015-3.696-5.992 3.294-7.315 11.175-3.933 16.764a13.374 13.374 0 0 0 5.2 4.91l-11.06-.053c-6.145-8.844-4.328-21.621 4.698-27.772 2.96-2.017 6.388-3.044 9.82-3.115z" style="text-indent:0;text-transform:none;block-progression:tb" overflow="visible" color="#000"></path></g><!----></svg>