<svg data-v-423bf9ae="" xmlns="http://www.w3.org/2000/svg" viewBox="0 0 101.88470940041609 60" class="icon"><!----><!----><!----><!----><g data-v-423bf9ae="" id="79031da5-9883-414a-adf9-d4d45eb95777" transform="matrix(1.7474437952041626,0,0,1.7474437952041626,-36.428958892822266,-57.37162399291992)" stroke="none" fill="black"><path d="M54.957 32.837a19.86 19.86 0 0 0-10.771 3.432c-9.485 6.463-11.618 19.535-5.782 29.066a18.812 18.812 0 0 1-2.904-.475c-2.534-.644-4.779-1.88-6.44-4.462v-.026c.136-.244.237-.518.237-.818a1.69 1.69 0 1 0-1.716 1.69h.026a11.861 11.861 0 0 0 4.065 3.88 16.39 16.39 0 0 1-1.24-.264c-2.535-.643-4.78-1.88-6.442-4.461v-.028a1.67 1.67 0 0 0 .237-.818 1.69 1.69 0 1 0-1.716 1.689h.028c1.928 2.973 4.666 4.534 7.498 5.253 3.23.82 6.608.66 9.398.66h38.86c.446.01.857-.398.857-.844 0-.447-.41-.851-.857-.845h-12.83c.4-.207.805-.441 1.188-.687 7.958-5.092 9.604-16.04 4.514-23.706-3.696-5.568-9.942-8.366-16.21-8.237zm.028 1.69c5.721-.12 11.428 2.417 14.783 7.47 4.587 6.91 3.106 16.803-4.012 21.358-2.208 1.413-4.78 2.115-7.313 2.112-4.22-.01-8.351-1.957-10.665-5.782-2.915-4.816-1.78-11.622 3.3-14.414 3.67-2.017 8.878-1.055 10.665 2.93.531 1.185.61 2.737.185 4.013-.425 1.277-1.245 2.253-2.64 2.535-.471.095-1.51-.224-1.98-.66-.235-.219-.315-.42-.317-.528 0-.109.03-.27.422-.581a.878.878 0 0 0 .101-1.163.878.878 0 0 0-1.156-.157c-.666.528-1.07 1.243-1.057 1.954.014.71.387 1.29.845 1.716.916.85 2.212 1.308 3.459 1.056 2.022-.41 3.364-1.908 3.933-3.617.57-1.71.46-3.667-.264-5.28-2.237-4.992-8.554-6.148-13.015-3.696-5.992 3.294-7.315 11.175-3.933 16.764a13.374 13.374 0 0 0 5.2 4.91l-11.06-.053c-6.145-8.844-4.328-21.621 4.698-27.772 2.96-2.017 6.388-3.044 9.82-3.115z" style="text-indent:0;text-transform:none;block-progression:tb" overflow="visible" color="#000"></path></g><!----></svg>